# xmcd
#
# Track frame offsets: 
#        150
#        37942
#        56780
#        78987
#        97500
#
# Disc length: 1529 seconds
#
# Revision: 2
# Processed by: cddbd v1.5.1PL0 Copyright (c) Steve Scherf et al.
# Submitted via: ExactAudioCopy v0.95a4
#
DISCID=2c05f705
DTITLE=Michael Jackson - Bad [CD Single)
DYEAR=1987
DGENRE=R&B
TTITLE0=Bad (Dance Extended Mix Includes "False Fade")
TTITLE1=Bad (7" Single Mix)
TTITLE2=Bad (Dance Remix Radio Edit)
TTITLE3=Bad (Dub Version)
TTITLE4=Bad (A Cappella)
EXTD=
EXTT0=
EXTT1=
EXTT2=
EXTT3=
EXTT4=
PLAYORDER=
